<svg width="135" height="134" viewBox="0 0 135 134" fill="none" xmlns="http://www.w3.org/2000/svg">
<g id="speech--to--text 1" clip-path="url(#clip0_5216_22939)">
<g id="speech--to--text_1_">
<path id="Vector" d="M117.75 48.7422H67.5V51.7572H117.75V48.7422Z" fill="#004B76"/>
<path id="Vector_2" d="M117.75 23.6172H67.5V26.6322H117.75V23.6172Z" fill="#004B76"/>
<path id="Vector_3" d="M18.753 33.5077C18.753 29.7222 21.835 26.6402 25.6205 26.6402H38.7944L29.5233 35.9113L31.6547 38.0386L43.5011 26.1963C43.7859 25.9158 43.9408 25.5305 43.9408 25.1327C43.9408 24.7349 43.7817 24.3497 43.5011 24.0691L31.6547 12.2227L29.5233 14.3541L38.7944 23.6252H25.6247C20.1767 23.6252 15.7422 28.0598 15.7422 33.5077V52.3515H18.7572L18.753 33.5077Z" fill="#004B76"/>
<path id="Vector_4" d="M117.75 73.8672H67.5V76.8864H117.75V73.8672Z" fill="#004B76"/>
<path id="Vector_5" d="M130.312 2.67969H54.9372C54.1039 2.67969 53.4297 3.35388 53.4297 4.18719V61.3047H13.0622C7.61425 61.3047 3.17969 65.7393 3.17969 71.1872V104.687C3.17969 110.139 7.61425 114.57 13.0622 114.57H28.8784L36.8388 130.486L39.5356 129.138L31.1606 112.388C30.9051 111.877 30.3817 111.555 29.8122 111.555H13.0622C9.27669 111.555 6.19469 108.477 6.19469 104.687V71.1872C6.19469 67.4017 9.27669 64.3197 13.0622 64.3197H53.4297V84.0554C51.8677 84.6626 50.7497 86.1575 50.7497 87.9372C50.7497 89.7169 51.8677 91.2118 53.4297 91.819V96.3122C53.4297 97.1455 54.1039 97.8197 54.9372 97.8197H70.1797V104.687C70.1797 108.473 67.0977 111.555 63.3122 111.555H38.1872V114.574H63.3122C68.7601 114.574 73.1947 110.139 73.1947 104.691V97.8239H130.312C131.146 97.8239 131.82 97.1497 131.82 96.3164V4.18719C131.82 3.35388 131.146 2.67969 130.312 2.67969ZM128.805 94.8047H56.4447V5.69469H128.805V94.8047Z" fill="#004B76"/>
<path id="Vector_6" d="M21.4375 92.125C23.7502 92.125 25.625 90.2502 25.625 87.9375C25.625 85.6248 23.7502 83.75 21.4375 83.75C19.1248 83.75 17.25 85.6248 17.25 87.9375C17.25 90.2502 19.1248 92.125 21.4375 92.125Z" fill="#004B76"/>
<path id="Vector_7" d="M38.1875 92.125C40.5002 92.125 42.375 90.2502 42.375 87.9375C42.375 85.6248 40.5002 83.75 38.1875 83.75C35.8748 83.75 34 85.6248 34 87.9375C34 90.2502 35.8748 92.125 38.1875 92.125Z" fill="#004B76"/>
</g>
</g>
<defs>
<clipPath id="clip0_5216_22939">
<rect width="134" height="134" fill="white" transform="translate(0.5)"/>
</clipPath>
</defs>
</svg>
