<svg width="32" height="32" viewBox="0 0 32 32" fill="none" xmlns="http://www.w3.org/2000/svg">
<rect width="32" height="32" fill="white"/>
<path d="M21.8684 13.772C22.7557 15.1739 23.4508 15.1499 24.5 15.1499C23.6316 14.4855 23.0575 13.635 22.7838 13.2008L21.1625 10.6107C21.004 9.81037 20.5898 9.06271 19.9693 8.50644C20.1779 8.42732 20.3513 8.34448 20.456 8.2657C19.3972 8.2657 18.3479 7.72875 17.7704 7.72875C17.3992 7.72875 17.1605 7.95018 17.1605 8.24302C17.1845 8.56902 17.5205 8.90144 18.142 8.90144C18.2832 8.90144 18.463 8.88282 18.6609 8.85002C18.9976 9.31833 19.2688 9.74172 19.2688 10.3456C19.2688 11.4798 17.9106 12.3633 16.5396 12.3633C16.462 12.3633 16.3886 12.3606 16.311 12.3545C16.1867 12.0739 15.7738 11.6011 15.7738 11.0649C15.7738 10.1637 16.3625 9.42792 16.3625 8.53518C16.3625 7.98065 16.0915 7.63742 15.9872 7.49476C16.1555 7.33851 16.3398 7.14677 16.3824 7.01554C16.2849 7.05752 16.169 7.06324 15.9994 7.06324C15.3423 7.06324 14.8068 6.89219 14.2842 6.89219C13.9868 6.89219 13.9063 6.98446 13.9063 7.07207C13.9063 7.10349 13.9113 7.13665 13.9198 7.15249C13.8087 7.1086 13.7044 7.08081 13.5804 7.05752C13.4267 7.02844 13.2604 7.01355 13.0835 7.01355C12.4492 7.01355 12.2236 7.2793 12.2236 7.50688C12.2236 7.69966 12.3754 8.05128 12.5477 8.31877C12.7953 8.19498 13.092 8.11049 13.2281 8.11049C13.5645 8.11049 13.8642 8.4307 14.0231 8.81045C13.7965 8.83746 13.7531 8.84759 13.5242 8.84759C12.9064 8.84759 12.4861 8.6265 12.399 8.6265C12.3905 8.6265 12.3743 8.63092 12.3743 8.64442C12.3743 8.73099 12.5494 8.95952 12.8949 9.08539C13.3498 9.25168 14.0316 9.32101 14.1451 9.33962C14.1451 9.35953 14.0296 9.57465 13.9008 9.61559C13.8734 9.62433 13.8521 9.62537 13.8205 9.61897C13.345 9.5253 13.2126 9.4854 12.6097 9.25609C12.5911 9.24934 12.5803 9.26085 12.5803 9.28041C12.5803 9.51821 13.1977 10.0437 13.7505 10.2448C13.2888 10.8339 12.7116 11.4361 12.4397 12.3545C12.3628 12.3606 12.2883 12.3633 12.2107 12.3633C10.84 12.3633 9.48153 11.4798 9.48153 10.3456C9.48153 9.74172 9.75345 9.31833 10.0901 8.85002C10.2876 8.88282 10.4675 8.90144 10.6084 8.90144C11.2299 8.90144 11.5661 8.56902 11.5909 8.24302C11.5909 7.95018 11.3521 7.72875 10.9799 7.72875C10.4024 7.72875 9.35416 8.2657 8.29435 8.2657C8.399 8.34448 8.57276 8.42732 8.78103 8.50644C8.16056 9.06271 7.74636 9.81037 7.58786 10.6107L5.96679 13.2008C5.69384 13.635 5.11802 14.4855 4.25 15.1499C5.29924 15.1499 5.99497 15.1739 6.88267 13.772L7.71385 12.4441C7.77549 12.6165 7.85136 12.7843 7.94006 12.9486L6.28691 15.5895C6.01188 16.0278 5.44187 16.8714 4.57003 17.5393C5.61936 17.5393 6.31466 17.5636 7.20202 16.1626L8.62557 13.888C8.73196 14.0013 8.84407 14.1122 8.96225 14.2177L6.95377 17.4277C6.67779 17.8662 6.11081 18.7076 5.23724 19.3754C6.28657 19.3754 6.98187 19.4008 7.86966 17.9988L9.82732 14.8696C9.95634 14.9504 10.0885 15.0299 10.2246 15.1046L7.83471 18.9219C7.55907 19.3615 6.99175 20.2004 6.11888 20.8696C7.16785 20.8696 7.8635 20.8943 8.75094 19.4937L11.2116 15.5608C11.3572 15.6169 11.5048 15.67 11.6553 15.7184L8.87459 20.1616C8.60294 20.5944 8.02269 21.4478 7.15901 22.1093C8.20764 22.1093 8.90337 22.1326 9.79073 20.7326L12.7544 15.997C12.7845 16.0024 12.8146 16.0071 12.8438 16.0132C12.9244 16.2695 12.9809 16.5079 12.9809 16.7463C12.9809 18.2338 12.0028 19.5485 10.8289 20.5629C10.9037 20.5957 11.0348 20.6069 11.1557 20.6069C11.3978 20.6069 11.5547 20.5944 11.664 20.5747C11.3921 21.1919 10.8081 21.9889 10.5132 22.4018C10.1284 22.3324 9.56954 22.2783 9.20338 22.2783C8.8204 22.2783 8.77704 22.5022 8.77704 22.7016C8.77704 23.0489 8.93962 23.3255 9.12959 23.4794C9.2 23.3019 9.34332 23.0645 10.0512 23.0645C10.0647 23.0645 10.0891 23.0658 10.1223 23.0686C9.91507 23.2985 9.26746 23.8209 9.26746 24.2419C9.26746 24.5209 9.57396 24.9385 9.97732 24.9385C9.95331 24.8489 9.95669 24.766 9.95669 24.7041C9.95669 24.363 10.2588 23.9637 10.5148 23.6857C10.5071 23.7685 10.5108 23.7601 10.5108 23.8564C10.5108 24.6629 10.5839 25.0332 11.0964 25.0332C11.3481 25.0332 11.5215 24.8952 11.5811 24.854C11.2482 24.548 11.2308 24.3078 11.2308 23.8555C11.2319 23.7381 11.2322 23.6231 11.2339 23.4642C11.2353 23.3611 11.2336 23.2241 11.2166 23.125C11.4002 23.0997 11.4744 23.0997 11.6156 23.0997C11.6156 23.0997 12.3435 23.0425 12.519 23.4202C12.7167 23.2393 13.0036 22.984 13.0036 22.7023C13.0036 22.5167 12.9152 22.306 12.5403 22.306C12.3983 22.306 11.9516 22.3933 11.5777 22.3933C11.678 22.1701 12.1254 21.5175 12.5125 21.0438C12.5711 21.2274 12.6625 21.4258 12.8658 21.5882C12.8935 21.2838 13.0727 20.3205 13.5496 19.7575C13.6048 20.1375 13.6796 20.5281 13.6796 21.3518C13.6796 23.3542 13.1977 24.8336 12.1734 25.116C12.3069 25.3476 12.5884 25.5556 12.881 25.5556C13.2553 25.5556 13.4595 25.1329 13.6675 24.7339C13.7759 25.0281 14.0753 25.75 14.375 25.75C14.6747 25.75 14.9745 25.0281 15.0829 24.7339C15.2909 25.1329 15.4947 25.5556 15.8693 25.5556C16.1619 25.5556 16.4441 25.3476 16.5772 25.116C15.5533 24.8336 15.0706 23.3542 15.0706 21.3518C15.0706 20.5281 15.1452 20.1375 15.2004 19.7575C15.6776 20.3205 15.8572 21.2838 15.8846 21.5882C16.0882 21.4258 16.1799 21.2274 16.2382 21.0438C16.6253 21.5175 17.0724 22.1701 17.173 22.3933C16.7987 22.3933 16.3523 22.306 16.2104 22.306C15.8358 22.306 15.747 22.5167 15.747 22.7023C15.747 22.984 16.0343 23.2393 16.2317 23.4202C16.4069 23.0425 17.1354 23.0997 17.1354 23.0997C17.2763 23.0997 17.3504 23.0997 17.5344 23.125C17.5171 23.2241 17.5161 23.3611 17.5167 23.4642C17.5185 23.6231 17.5192 23.7381 17.5195 23.8555C17.5195 24.3078 17.5025 24.548 17.1696 24.854C17.2296 24.8952 17.403 25.0332 17.6539 25.0332C18.1667 25.0332 18.2399 24.6629 18.2399 23.8564C18.2399 23.7601 18.2429 23.7685 18.2361 23.6857C18.4916 23.9637 18.7944 24.363 18.7944 24.7041C18.7944 24.766 18.7977 24.8489 18.773 24.9385C19.1771 24.9385 19.4836 24.5209 19.4836 24.2419C19.4836 23.8209 18.8356 23.2985 18.6284 23.0686C18.6619 23.0658 18.686 23.0645 18.6991 23.0645C19.4077 23.0645 19.5503 23.3019 19.6214 23.4794C19.8107 23.3255 19.9733 23.0489 19.9733 22.7016C19.9733 22.5022 19.9303 22.2783 19.5472 22.2783C19.1812 22.2783 18.6222 22.3324 18.2375 22.4018C17.9425 21.9889 17.3589 21.1919 17.0863 20.5747C17.196 20.5944 17.3532 20.6069 17.5947 20.6069C17.7162 20.6069 17.8466 20.5957 17.9218 20.5629C16.7479 19.5485 15.7698 18.2338 15.7698 16.7463C15.7698 16.5079 15.8263 16.2695 15.9066 16.0132C15.9361 16.0071 15.9665 16.0024 15.9963 15.997L18.9596 20.7326C19.847 22.1326 20.5431 22.1093 21.5913 22.1093C20.7277 21.4478 20.1478 20.5944 19.8768 20.1616L17.0951 15.7184C17.2458 15.67 17.3935 15.6169 17.5391 15.5608L19.9997 19.4937C20.8871 20.8943 21.5825 20.8696 22.6321 20.8696C21.7586 20.2004 21.1916 19.3615 20.916 18.9219L18.5261 15.1046C18.6619 15.0299 18.7947 14.9504 18.9227 14.8696L20.8814 17.9988C21.7691 19.4008 22.4641 19.3754 23.5128 19.3754C22.6399 18.7076 22.0733 17.8662 21.7969 17.4277L19.7888 14.2177C19.907 14.1122 20.0194 14.0013 20.1248 13.888L21.5486 16.1626C22.436 17.5636 23.131 17.5393 24.1807 17.5393C23.3081 16.8714 22.7395 16.0278 22.4641 15.5895L20.8106 12.9486C20.8997 12.7843 20.9752 12.6165 21.0372 12.4441L21.8684 13.772V13.772ZM8.59678 10.7311C8.59678 9.7444 9.31523 8.96359 9.5685 8.7438C9.62954 8.75869 9.69015 8.77324 9.75041 8.78579C9.48154 9.11343 9.00699 9.66251 9.00699 10.3899C9.00699 11.8335 10.5524 13.0876 12.3018 13.0876C12.2907 13.211 12.2846 13.3412 12.2846 13.4748C12.2846 13.6878 12.296 13.8863 12.3175 14.0733C10.3391 14.0615 8.59678 12.4579 8.59678 10.7311V10.7311ZM11.2776 22.5675L11.2664 22.6009H11.301C11.8564 22.6009 12.1267 22.5613 12.3059 22.5353C12.4001 22.5235 12.4671 22.5134 12.5403 22.5134C12.6835 22.5134 12.7936 22.5269 12.7936 22.7023C12.7936 22.8217 12.6544 23.0094 12.5199 23.1186C12.3147 22.9255 12.0316 22.8877 11.6156 22.8877C11.4209 22.8877 11.1662 22.9221 11.0293 22.9418L11.008 22.9441L10.984 22.9475L10.9917 23.0127C11.008 23.1277 11.0277 23.2708 11.0277 23.4631L11.0253 23.6383L11.0233 23.8555C11.0233 24.3264 11.0879 24.5952 11.2529 24.7981C11.2102 24.8144 11.1411 24.8269 11.0964 24.8269C10.8038 24.8269 10.7188 24.6995 10.7188 23.8564C10.7188 23.6873 10.7096 23.5284 10.7035 23.4226L10.6954 23.2664L10.6581 23.2951C10.2229 23.6265 9.77443 24.2182 9.74772 24.6612C9.61628 24.5767 9.47434 24.3873 9.47434 24.2419C9.47434 24.0001 9.83816 23.6377 10.2595 23.2173L10.502 22.9755L10.5325 22.9441L10.4529 22.9249C10.3625 22.9012 10.1941 22.8589 10.0512 22.8589C9.57839 22.8589 9.28298 22.9475 9.10011 23.1463C9.03508 23.0516 8.97985 22.8311 8.97985 22.7016C8.97985 22.6182 8.9965 22.5586 9.02997 22.5248C9.07133 22.4852 9.13531 22.4852 9.19159 22.4852H9.20338C9.72362 22.4852 10.3462 22.5789 10.5894 22.6182L10.6036 22.6216L10.6127 22.6097C10.6548 22.5529 11.6471 21.2334 11.9052 20.5335C11.9641 20.5116 12.016 20.4942 12.1192 20.4942C12.3147 20.4942 12.3689 20.6265 12.4255 20.8273C11.8046 21.5797 11.4185 22.1647 11.2776 22.5675V22.5675ZM16.6311 20.4942C16.7351 20.4942 16.7859 20.5116 16.8458 20.5335C17.1036 21.2334 18.0959 22.5529 18.1376 22.6097L18.1467 22.6216L18.1617 22.6182C18.4049 22.5789 19.0266 22.4852 19.5472 22.4852H19.5588C19.6154 22.4852 19.6794 22.4852 19.7203 22.5248C19.7538 22.5586 19.7708 22.6182 19.7708 22.7016C19.7708 22.8311 19.716 23.0516 19.6502 23.1463C19.4676 22.9475 19.1723 22.8589 18.6991 22.8589C18.5566 22.8589 18.3886 22.9012 18.2974 22.9249L18.2602 22.9333L18.2175 22.9441L18.4912 23.2173C18.9122 23.6377 19.2766 24.0001 19.2766 24.2419C19.2766 24.3873 19.1348 24.5767 19.0037 24.6612C18.9759 24.2182 18.5278 23.6265 18.0922 23.2951L18.0549 23.2674L18.0478 23.4226C18.0414 23.5284 18.0323 23.6873 18.0323 23.8564C18.0323 24.6995 17.9465 24.8269 17.6539 24.8269C17.6092 24.8269 17.5405 24.8144 17.4978 24.7981C17.6624 24.5952 17.7278 24.3264 17.7278 23.8555L17.7251 23.6383L17.723 23.4631C17.723 23.2708 17.743 23.1277 17.7586 23.0127L17.7671 22.9475L17.721 22.9418C17.5842 22.9221 17.3298 22.8877 17.1354 22.8877C16.7188 22.8877 16.436 22.9255 16.231 23.1186C16.096 23.0094 15.9571 22.8217 15.9571 22.7023C15.9571 22.5269 16.0668 22.5134 16.2104 22.5134C16.2832 22.5134 16.351 22.5235 16.4448 22.5353C16.624 22.5613 16.8943 22.6009 17.4497 22.6009H17.4839L17.473 22.5675C17.3321 22.1647 16.9457 21.5797 16.3256 20.8273C16.3815 20.6265 16.436 20.4942 16.6311 20.4942V20.4942ZM14.333 8.98116C14.2714 8.72484 14.1399 8.46142 13.9722 8.26328C13.8199 8.08374 13.5676 7.87037 13.2281 7.87037C13.0727 7.87037 12.8125 7.94239 12.6473 8.01242C12.5849 7.90014 12.4644 7.62894 12.4644 7.50688C12.4644 7.3811 12.6775 7.25394 13.0835 7.25394C13.9784 7.25394 14.5132 7.65802 14.5132 8.33504C14.5132 8.5724 14.4187 8.78916 14.333 8.98116V8.98116ZM14.7347 8.10071C14.7025 7.90958 14.6297 7.73645 14.5189 7.58808C14.5244 7.41287 14.5965 7.24589 14.8783 7.38344C14.7259 7.53934 14.8437 7.81496 14.8437 7.81496C14.8437 7.81496 15.1557 7.67058 15.0914 7.46498C15.554 7.57553 15.2214 8.19602 14.7347 8.10071V8.10071ZM16.4759 14.0733C16.4997 13.8795 16.5128 13.6794 16.5128 13.4748C16.5128 13.3631 16.5139 13.2336 16.5004 13.0866C18.2281 13.0619 19.7437 11.8195 19.7437 10.3899C19.7437 9.66251 19.2688 9.11343 19.0003 8.78579C19.0609 8.77324 19.1215 8.75869 19.1825 8.7438C19.4355 8.96359 20.1538 9.7444 20.1538 10.7311C20.1538 12.4458 18.437 14.0377 16.4759 14.0733" fill="black"/>
<path d="M30.5 21.375H32V32H28.5V21.375H30.5Z" fill="#F1CC1F"/>
<path d="M30.5 10.625H32V21.375H28.5V10.625H30.5Z" fill="#D8232A"/>
<path d="M28.5 10.625H32V-2.38419e-07H28.5V10.625Z" fill="black"/>
</svg>
